<?xml version="1.0" encoding="UTF-8"?>
<svg version="1.1" xmlns="http://www.w3.org/2000/svg" width="206" height="206">
<path d="M0 0 C3.3 0 6.6 0 10 0 C10 3.63 10 7.26 10 11 C11.629375 11.061875 13.25875 11.12375 14.9375 11.1875 C39.28436304 13.28092874 61.38517284 26.51556969 77 45 C88.37447715 59.7906587 97.38364278 78.97491184 96 98 C99.96 98 103.92 98 108 98 C108 101.3 108 104.6 108 108 C104.04 108 100.08 108 96 108 C96.04125 109.29808594 96.0825 110.59617187 96.125 111.93359375 C96.11726519 116.88290377 95.28883575 121.29965019 94 126.0625 C93.77852295 126.88250488 93.5570459 127.70250977 93.32885742 128.54736328 C86.35143169 152.92007888 70.28907955 171.13541584 48.71875 183.94921875 C42.05857023 187.5360679 35.47025732 189.96641981 28.1875 191.9375 C27.02323486 192.25509277 27.02323486 192.25509277 25.83544922 192.57910156 C20.44161462 193.92784742 15.55633655 194.18244687 10 194 C10 197.96 10 201.92 10 206 C6.7 206 3.4 206 0 206 C0 202.04 0 198.08 0 194 C-1.155 194.0825 -2.31 194.165 -3.5 194.25 C-25.49527 194.21536178 -45.80263422 181.82075467 -61 167 C-61.65742187 166.41605469 -62.31484375 165.83210937 -62.9921875 165.23046875 C-78.70629134 150.9284618 -85.77774478 128.53388764 -87 108 C-90.63 108 -94.26 108 -98 108 C-98 104.7 -98 101.4 -98 98 C-94.37 98 -90.74 98 -87 98 C-86.9175 96.329375 -86.835 94.65875 -86.75 92.9375 C-84.69510202 69.56646031 -72.64667672 47.81584213 -55.0625 32.4296875 C-39.41264202 19.6261444 -20.50791568 11 0 11 C0 7.37 0 3.74 0 0 Z M10 21 C10 29.25 10 37.5 10 46 C13.031875 46.5259375 13.031875 46.5259375 16.125 47.0625 C31.42609716 50.39755246 44.11883744 58.34029141 52.9375 71.4375 C58.00120086 80.03852299 60.03725763 88.18628813 62 98 C69.92 98 77.84 98 86 98 C86 77.51318475 76.09465914 58.44899877 62.125 43.75 C47.62832094 29.95567942 29.68100371 22.96810037 10 21 Z M-53 45 C-53.95519531 45.86238281 -53.95519531 45.86238281 -54.9296875 46.7421875 C-69.15891755 59.95956119 -75.29632533 79.2595786 -77 98 C-69.08 98 -61.16 98 -53 98 C-52.34 95.69 -51.68 93.38 -51 91 C-46.33135776 75.12661639 -39.24636027 61.9002964 -24.3125 53.5 C-22.55705937 52.63471199 -20.78707859 51.79790053 -19 51 C-18.30132812 50.68546875 -17.60265625 50.3709375 -16.8828125 50.046875 C-12.37666971 48.20098518 -7.79215214 47.26306159 -3.00390625 46.4296875 C-1.01106709 46.1921136 -1.01106709 46.1921136 0 45 C0.08726223 43.21928754 0.10699041 41.4351686 0.09765625 39.65234375 C0.09443359 38.57275391 0.09121094 37.49316406 0.08789062 36.38085938 C0.07951172 35.24455078 0.07113281 34.10824219 0.0625 32.9375 C0.05798828 31.79732422 0.05347656 30.65714844 0.04882812 29.48242188 C0.03699747 26.65489649 0.0205141 23.8274736 0 21 C-20.19184265 21 -38.85938268 31.25354623 -53 45 Z M-29.89453125 69.8046875 C-37.52454713 77.81703533 -41.67560451 86.97055338 -42 98 C-35.4 98 -28.8 98 -22 98 C-22 101.3 -22 104.6 -22 108 C-28.6 108 -35.2 108 -42 108 C-41.19815901 115.21656891 -40.85125393 118.22095712 -37.75 124.1875 C-37.16734375 125.33605469 -36.5846875 126.48460938 -35.984375 127.66796875 C-29.80217505 138.04871001 -19.73730214 145.85703105 -8 149 C-5.36 149.33 -2.72 149.66 0 150 C0 143.4 0 136.8 0 130 C3.3 130 6.6 130 10 130 C10 136.6 10 143.2 10 150 C22.84016261 148.11174079 33.2536381 142.68180168 42 133 C47.71772138 125.20310721 50.63227637 117.57406544 52 108 C45.4 108 38.8 108 32 108 C32 104.7 32 101.4 32 98 C38.6 98 45.2 98 52 98 C50.35251031 85.47907837 45.73482272 74.21430201 35.71484375 66.1640625 C27.08444306 59.84132691 20.75316989 57.19479665 10 56 C10 62.6 10 69.2 10 76 C6.7 76 3.4 76 0 76 C0 69.4 0 62.8 0 56 C-12.13343156 56 -21.33142587 61.64766753 -29.89453125 69.8046875 Z M-77 108 C-74.60965489 131.90345108 -65.15109288 150.71007529 -47.01171875 166.6484375 C-33.48810915 177.20772801 -17.18655559 184 0 184 C0 176.08 0 168.16 0 160 C-2.371875 159.484375 -4.74375 158.96875 -7.1875 158.4375 C-21.88829777 154.90546087 -34.40319417 147.28815749 -42.875 134.5625 C-48.03901136 125.82620783 -50.14559248 118.19924137 -52 108 C-60.25 108 -68.5 108 -77 108 Z M62 108 C61.46375 110.2275 60.9275 112.455 60.375 114.75 C56.26231381 130.54539829 47.85817927 143.05850149 34 152 C26.34157912 156.29761539 18.56740351 158.24967025 10 160 C10 167.92 10 175.84 10 184 C33.4967448 183.20797489 51.2687613 172.50782515 67.39453125 155.97265625 C78.93734437 142.80311984 86 125.44662828 86 108 C78.08 108 70.16 108 62 108 Z " fill="#FFFFFF" transform="translate(98,0)"/>
</svg>
