<svg width="206" height="206" viewBox="0 0 206 206" fill="none" xmlns="http://www.w3.org/2000/svg">
<path d="M107.328 11.5365V0H98.1927V11.5365C51.375 13.8385 13.8385 51.375 11.5365 98.1927H0V107.323H11.5365C13.8385 154.141 51.375 191.677 98.1927 193.979V205.516H107.328V193.979C154.146 191.677 191.682 154.141 193.984 107.323H205.516V98.1927H193.984C191.682 51.375 154.146 13.8385 107.328 11.5365ZM184.833 98.1927H159.651C157.443 70.3021 135.214 48.0781 107.328 45.8698V20.6875C149.026 22.9792 182.536 56.4896 184.833 98.1927ZM150.479 107.323C148.318 130.125 130.13 148.313 107.328 150.479V130.161H98.1927V150.479C75.3906 148.313 57.2031 130.125 55.0417 107.323H75.3594V98.1927H55.0417C57.2031 75.3906 75.3906 57.2031 98.1927 55.0365V75.3542H107.328V55.0365C130.13 57.2031 148.318 75.3906 150.479 98.1927H130.161V107.323H150.479ZM98.1927 20.6875V45.8698C70.3073 48.0781 48.0781 70.3021 45.8698 98.1927H20.6875C22.9792 56.4896 56.4948 22.9792 98.1927 20.6875ZM20.6875 107.323H45.8698C48.0781 135.214 70.3073 157.438 98.1927 159.646V184.828C56.4948 182.536 22.9792 149.026 20.6875 107.323ZM107.328 184.828V159.646C135.214 157.438 157.443 135.214 159.651 107.323H184.833C182.536 149.026 149.026 182.536 107.328 184.828Z" fill="#FF0000"/>
</svg>
