<svg width="848" height="206" viewBox="0 0 848 206" fill="none" xmlns="http://www.w3.org/2000/svg">
<path d="M415.82 11.5365V0H406.685V11.5365C359.867 13.8385 322.331 51.375 320.029 98.1927H308.492V107.323H320.029C322.331 154.141 359.867 191.677 406.685 193.979V205.516H415.82V193.979C462.638 191.677 500.174 154.141 502.477 107.323H514.008V98.1927H502.477C500.174 51.375 462.638 13.8385 415.82 11.5365ZM493.326 98.1927H468.143C465.935 70.3021 443.706 48.0781 415.82 45.8698V20.6875C457.518 22.9792 491.029 56.4896 493.326 98.1927ZM458.971 107.323C456.81 130.125 438.622 148.313 415.82 150.479V130.161H406.685V150.479C383.883 148.313 365.695 130.125 363.534 107.323H383.852V98.1927H363.534C365.695 75.3906 383.883 57.2031 406.685 55.0365V75.3542H415.82V55.0365C438.622 57.2031 456.81 75.3906 458.971 98.1927H438.654V107.323H458.971ZM406.685 20.6875V45.8698C378.799 48.0781 356.57 70.3021 354.362 98.1927H329.18C331.471 56.4896 364.987 22.9792 406.685 20.6875ZM329.18 107.323H354.362C356.57 135.214 378.799 157.438 406.685 159.646V184.828C364.987 182.536 331.471 149.026 329.18 107.323ZM415.82 184.828V159.646C443.706 157.438 465.935 135.214 468.143 107.323H493.326C491.029 149.026 457.518 182.536 415.82 184.828Z" fill="#D10000"/>
<path d="M0 153.26V50.3854H43.9375C51.7708 50.3854 58.5729 51.8125 64.3542 54.6562C70.1458 57.4895 74.6042 61.552 77.7292 66.8437C80.8646 72.1354 82.4375 78.4583 82.4375 85.802C82.4375 93.3437 80.7188 99.8385 77.2917 105.281C73.875 110.714 69.0729 114.802 62.8958 117.552L84.2083 153.26H57.1667L38.7917 121.219H23.3542V153.26H0ZM23.0625 101.531H40.8542C46.6302 101.531 51.0625 100.187 54.1458 97.4895C57.2396 94.7968 58.7917 90.9479 58.7917 85.9479C58.7917 80.9479 57.2396 77.1041 54.1458 74.4062C51.0625 71.7135 46.6302 70.3645 40.8542 70.3645H23.0625V101.531Z" fill="#D10000"/>
<path d="M103.466 153.26V50.3854H171.07V70.0729H126.674V91.3854H167.091V110.927H126.674V133.427H172.695V153.26H103.466Z" fill="#D10000"/>
<path d="M192.529 153.26V50.3854H233.238C244.113 50.3854 253.613 52.5416 261.738 56.8437C269.873 61.151 276.196 67.177 280.696 74.927C285.206 82.6666 287.467 91.6302 287.467 101.823C287.467 112.115 285.206 121.109 280.696 128.802C276.196 136.484 269.873 142.484 261.738 146.802C253.613 151.109 244.113 153.26 233.238 153.26H192.529ZM215.883 131.802H232.8C238.868 131.802 244.201 130.552 248.8 128.052C253.41 125.552 257.014 122.052 259.613 117.552C262.206 113.042 263.508 107.797 263.508 101.823C263.508 95.7395 262.206 90.4687 259.613 86.0104C257.014 81.552 253.389 78.0833 248.738 75.5937C244.081 73.0937 238.675 71.8437 232.508 71.8437H215.883V131.802Z" fill="#D10000"/>
<path d="M537.015 153.26V50.3854H577.723C588.598 50.3854 598.098 52.5416 606.223 56.8437C614.358 61.151 620.681 67.177 625.181 74.927C629.692 82.6666 631.952 91.6302 631.952 101.823C631.952 112.115 629.692 121.109 625.181 128.802C620.681 136.484 614.358 142.484 606.223 146.802C598.098 151.109 588.598 153.26 577.723 153.26H537.015ZM560.369 131.802H577.285C583.353 131.802 588.687 130.552 593.285 128.052C597.895 125.552 601.499 122.052 604.098 117.552C606.692 113.042 607.994 107.797 607.994 101.823C607.994 95.7395 606.692 90.4687 604.098 86.0104C601.499 81.552 597.874 78.0833 593.223 75.5937C588.567 73.0937 583.16 71.8437 576.994 71.8437H560.369V131.802Z" fill="#D10000"/>
<path d="M699.266 155.323C688.584 155.323 679.105 153.047 670.829 148.49C662.547 143.937 656.079 137.646 651.412 129.615C646.756 121.573 644.433 112.312 644.433 101.823C644.433 91.3385 646.756 82.0833 651.412 74.052C656.079 66.0104 662.547 59.7135 670.829 55.1562C679.105 50.6041 688.584 48.3229 699.266 48.3229C710.042 48.3229 719.542 50.6041 727.766 55.1562C736.001 59.7135 742.464 66.0104 747.162 74.052C751.87 82.0833 754.225 91.3385 754.225 101.823C754.225 112.312 751.87 121.573 747.162 129.615C742.464 137.646 736.001 143.937 727.766 148.49C719.542 153.047 710.042 155.323 699.266 155.323ZM668.245 101.823C668.245 107.99 669.563 113.427 672.204 118.135C674.855 122.833 678.506 126.505 683.162 129.156C687.813 131.797 693.183 133.115 699.266 133.115C705.433 133.115 710.839 131.797 715.495 129.156C720.162 126.505 723.787 122.833 726.37 118.135C728.964 113.427 730.266 107.99 730.266 101.823C730.266 95.6458 728.964 90.2083 726.37 85.5104C723.787 80.802 720.162 77.1302 715.495 74.4895C710.839 71.8385 705.433 70.5104 699.266 70.5104C693.183 70.5104 687.813 71.8385 683.162 74.4895C678.506 77.1302 674.855 80.802 672.204 85.5104C669.563 90.2083 668.245 95.6458 668.245 101.823Z" fill="#D10000"/>
<path d="M791.855 153.26V72.2812H759.23V50.3854H847.855V72.2812H815.23V153.26H791.855Z" fill="#D10000"/>
</svg>
